<svg width="24" height="19" viewBox="0 0 24 19" fill="none" xmlns="http://www.w3.org/2000/svg">
<path fill-rule="evenodd" clip-rule="evenodd" d="M1.64987 8.17938C8.09231 5.49804 12.3883 3.73034 14.5378 2.87627C20.675 0.437736 21.9503 0.0141366 22.7815 0.000149138C22.9643 -0.00292726 23.3731 0.0403535 23.6379 0.245594C23.8614 0.418895 23.9229 0.653001 23.9524 0.817309C23.9818 0.981618 24.0185 1.35592 23.9893 1.64838C23.6568 4.98655 22.2177 13.0874 21.4856 16.8262C21.1758 18.4082 20.5658 18.9387 19.9753 18.9906C18.6919 19.1034 17.7174 18.1804 16.4744 17.402C14.5294 16.184 13.4305 15.4259 11.5425 14.2373C9.36064 12.8638 10.7751 12.1089 12.0185 10.8751C12.344 10.5522 17.9985 5.63905 18.1079 5.19335C18.1216 5.13761 18.1343 4.92982 18.0051 4.82011C17.8759 4.71039 17.6851 4.74791 17.5475 4.77775C17.3524 4.82004 14.2452 6.78196 8.22584 10.6635C7.34386 11.242 6.545 11.5239 5.82924 11.5091C5.04018 11.4929 3.52233 11.0829 2.39397 10.7326C1.00999 10.3028 -0.0899676 10.0756 0.00581422 9.34573C0.0557033 8.96558 0.603723 8.57679 1.64987 8.17938Z" fill="#373037"/>
</svg>
